<?xml version="1.0" standalone="no"?>
<!DOCTYPE svg PUBLIC "-//W3C//DTD SVG 20010904//EN"
 "http://www.w3.org/TR/2001/REC-SVG-20010904/DTD/svg10.dtd">
<svg version="1.0" xmlns="http://www.w3.org/2000/svg"
 width="300.000000pt" height="300.000000pt" viewBox="0 0 300.000000 300.000000"
 preserveAspectRatio="xMidYMid meet">
<metadata>
Created by potrace 1.10, written by Peter Selinger 2001-2011
</metadata>
<g transform="translate(0.000000,300.000000) scale(0.100000,-0.100000)"
fill="#000000" stroke="none">
<path d="M1445 2546 c-182 -42 -318 -134 -416 -284 -83 -127 -115 -272 -98
-446 30 -312 187 -471 589 -595 327 -101 424 -142 503 -211 74 -66 101 -131
99 -245 -2 -117 -51 -201 -150 -253 -149 -79 -318 -80 -473 -2 -112 57 -260
191 -370 335 -48 63 -159 242 -159 257 0 4 -14 8 -30 8 -29 0 -31 -2 -26 -32
3 -18 11 -180 17 -361 l12 -327 23 0 c15 0 28 10 38 28 8 15 23 36 35 46 21
19 24 18 208 -17 253 -49 364 -61 508 -54 218 10 356 67 490 202 142 141 197
282 198 510 1 238 -64 388 -221 509 -106 81 -224 129 -515 211 -346 98 -477
198 -477 365 0 193 178 324 420 307 194 -13 379 -170 565 -482 48 -80 60 -95
82 -95 l25 0 -6 78 c-3 42 -9 179 -12 305 -7 250 -9 256 -64 197 -16 -17 -38
-30 -52 -30 -12 0 -97 18 -188 41 -153 38 -177 41 -330 45 -116 3 -183 0 -225
-10z m365 -21 c14 -4 43 -9 65 -12 22 -3 45 -8 50 -12 6 -4 26 -8 45 -10 19
-2 37 -7 38 -12 2 -5 8 -7 12 -4 5 3 36 -1 69 -10 76 -19 116 -19 147 2 22 14
27 14 35 2 5 -8 8 -27 8 -44 -1 -16 2 -128 6 -247 4 -120 5 -218 2 -218 -8 0
-67 89 -67 101 0 5 -4 9 -10 9 -5 0 -10 5 -10 11 0 6 -7 17 -15 26 -8 8 -12
19 -9 25 4 6 2 8 -3 5 -6 -4 -16 7 -23 23 -7 17 -18 34 -24 38 -6 4 -24 25
-40 47 -49 69 -184 192 -239 218 -76 38 -110 50 -126 48 -7 -1 -10 2 -6 9 6 9
-18 11 -93 8 -55 -1 -95 1 -89 5 13 9 237 2 277 -8z m-305 -5 c3 -6 -1 -7 -9
-4 -18 7 -21 14 -7 14 6 0 13 -4 16 -10z m-40 -10 c-3 -5 -12 -10 -20 -10 -16
0 -99 -42 -103 -52 -2 -5 -8 -8 -13 -8 -15 0 -66 -62 -91 -110 -33 -65 -33
-205 0 -270 29 -56 78 -108 117 -126 17 -8 37 -18 45 -23 37 -23 126 -61 141
-61 10 0 21 -4 24 -10 3 -5 17 -10 30 -10 13 0 26 -4 30 -10 3 -5 12 -7 20 -3
8 3 15 0 15 -7 0 -6 4 -9 8 -6 8 5 68 -8 102 -21 8 -3 26 -8 38 -10 13 -2 67
-20 120 -39 54 -20 105 -38 115 -41 9 -3 17 -10 17 -15 0 -5 4 -7 9 -3 5 3 15
0 23 -7 7 -7 19 -14 26 -16 20 -4 62 -33 62 -43 0 -5 3 -8 8 -7 18 6 162 -142
162 -167 0 -6 9 -28 20 -49 38 -75 53 -178 48 -323 -3 -73 -10 -139 -15 -145
-6 -7 -13 -29 -17 -48 -14 -80 -108 -227 -183 -287 -76 -62 -91 -72 -131 -91
-59 -28 -226 -75 -249 -69 -12 3 -10 5 9 6 14 0 49 12 76 26 28 14 57 25 66
25 9 0 16 3 16 8 0 4 20 20 45 37 25 17 52 46 62 67 10 21 21 38 24 38 13 0
31 133 26 183 -17 141 -77 217 -228 290 -52 25 -132 58 -179 74 -47 15 -87 30
-90 33 -3 3 -18 6 -35 8 -16 2 -43 10 -60 17 -16 8 -55 21 -85 29 -105 27
-234 88 -277 132 -8 8 -18 14 -22 14 -15 0 -121 111 -121 127 0 9 -3 13 -6 10
-16 -16 -57 92 -84 218 -11 56 -7 239 8 300 17 68 42 129 59 142 9 7 14 16 10
19 -3 4 -1 12 6 20 7 7 26 30 42 50 43 54 107 114 121 114 7 0 14 6 17 13 6
15 103 64 143 72 24 5 91 20 102 24 2 1 0 -3 -3 -9z m-485 -1487 c0 -7 4 -13
10 -13 5 0 12 -11 16 -25 3 -14 10 -25 16 -25 5 0 6 -4 3 -10 -3 -5 -1 -10 5
-10 6 0 18 -16 26 -35 8 -19 18 -35 23 -35 4 0 13 -10 18 -22 16 -33 57 -81
148 -173 111 -110 145 -138 203 -164 12 -6 22 -16 22 -22 0 -7 3 -10 6 -6 6 5
114 -31 124 -43 5 -5 11 -6 95 -16 28 -4 52 -9 55 -11 7 -8 -206 6 -265 16
-27 5 -102 18 -165 30 -63 11 -139 25 -169 30 -85 17 -107 14 -142 -20 -17
-17 -33 -29 -35 -27 -4 5 -13 134 -19 268 -2 52 -7 150 -11 217 -7 128 -2 157
22 126 7 -10 14 -24 14 -30z"/>
</g>
</svg>
